<svg height='100px' width='100px'  fill="currentColor" xmlns="http://www.w3.org/2000/svg" viewBox="0 0 64 64" x="0px" y="0px"><title>language, translate, translation, translator</title><g><path d="M55.63,22.75H38.94V11.06a6.32,6.32,0,0,0-6.31-6.31H8.37a6.32,6.32,0,0,0-6.31,6.31V26.23a6.17,6.17,0,0,0,1.08,3.52C5.45,34.25,16.45,41,16.56,41.1a1,1,0,0,0,.52.15,1,1,0,0,0,.64-.24A1,1,0,0,0,18,39.88a43.82,43.82,0,0,1-2-7.35h9.06v11.7a6.31,6.31,0,0,0,6.31,6.3H48a43.82,43.82,0,0,1-2,7.35A1,1,0,0,0,46.28,59a1,1,0,0,0,.64.24,1,1,0,0,0,.52-.15c.11-.07,11.11-6.85,13.42-11.35a6.17,6.17,0,0,0,1.08-3.52V29.06A6.32,6.32,0,0,0,55.63,22.75ZM21.49,30.53H14.81a1,1,0,0,0-.76.35,1,1,0,0,0-.23.81,54.29,54.29,0,0,0,1.39,6.14c-3.46-2.34-8.91-6.36-10.27-8.95a1.28,1.28,0,0,0-.11-.2,4.24,4.24,0,0,1-.77-2.45V11.06A4.32,4.32,0,0,1,8.37,6.75H32.63a4.32,4.32,0,0,1,4.31,4.31V22.75H31.37a6.31,6.31,0,0,0-4.91,2.35,8.83,8.83,0,0,1-4.1-1,12.53,12.53,0,0,0,3.12-7.61h1.26a1,1,0,1,0,0-2h-5.2V11.33a1,1,0,1,0-2,0v3.13H14.33a1,1,0,1,0,0,2h9.14a10.47,10.47,0,0,1-2.59,6.26l-.16.15A10.39,10.39,0,0,1,18.22,19a1,1,0,0,0-1.87.72,12.46,12.46,0,0,0,2.72,4.34,9.81,9.81,0,0,1-4.71,1.05h0a1,1,0,1,0,0,2,11.5,11.5,0,0,0,6.37-1.69A10.34,10.34,0,0,0,25.4,27a6.12,6.12,0,0,0-.34,2v1.47Zm38.45,13.7a4.24,4.24,0,0,1-.77,2.45.69.69,0,0,0-.1.19c-1.36,2.59-6.82,6.62-10.28,9a54.29,54.29,0,0,0,1.39-6.14,1,1,0,0,0-.23-.81,1,1,0,0,0-.76-.35H31.37a4.31,4.31,0,0,1-4.31-4.3V29.06a4.32,4.32,0,0,1,4.31-4.31H55.63a4.32,4.32,0,0,1,4.31,4.31ZM44.47,28.85h0a.91.91,0,0,0-.15-.23s0-.07-.07-.1a1.05,1.05,0,0,0-.11-.07,1,1,0,0,0-.21-.14h0a.9.9,0,0,0-.16,0,1.55,1.55,0,0,0-.21,0,1.19,1.19,0,0,0-.26.05l-.11,0h0a1.13,1.13,0,0,0-.26.16l-.07.05-.08.12a1.53,1.53,0,0,0-.14.21h0l-6,15a1,1,0,0,0,.56,1.3.94.94,0,0,0,.37.07,1,1,0,0,0,.93-.63l1.74-4.37h6.65l1.75,4.37a1,1,0,0,0,.93.63,1,1,0,0,0,.37-.07,1,1,0,0,0,.56-1.3ZM41,38.22l2.53-6.31,2.52,6.31Z"></path></g></svg>