<svg width="80" height="80" viewBox="0 0 80 80" fill="currentColor" xmlns="http://www.w3.org/2000/svg">
<path fill-rule="evenodd" clip-rule="evenodd" d="M36.1886 78.8937C29.7453 78.0207 22.9358 77.2193 18.1041 72.2385C13.4857 67.4777 13.7812 59.4082 11.065 52.9951C7.68828 45.0223 -1.78169 38.7293 0.294304 30.1881C2.34809 21.7382 12.5861 20.6684 19.6949 17.4894C25.0292 15.1039 30.7677 16.2475 36.1886 14.1363C45.813 10.3882 53.6266 -2.56801 63.4425 0.452309C72.8142 3.33596 77.4101 16.5266 79.4304 27.4418C81.3442 37.7819 78.1544 48.2975 74.0485 57.7557C70.4161 66.1232 64.9719 73.5135 57.6576 77.5972C51.0489 81.287 43.4841 79.8821 36.1886 78.8937Z" />
</svg>
