<svg height='100px' width='100px'  fill="#000000" xmlns="http://www.w3.org/2000/svg" xmlns:xlink="http://www.w3.org/1999/xlink" xml:space="preserve" version="1.1" style="shape-rendering:geometricPrecision;text-rendering:geometricPrecision;image-rendering:optimizeQuality;" viewBox="0 0 323 323" x="0px" y="0px" fill-rule="evenodd" clip-rule="evenodd"><defs><style type="text/css">

    .fil0 {fill:#34cbad}
    .fil1 {fill:#34cbad;fill-rule:nonzero}

  </style></defs><g><path class="fil0" d="M84 38l24 47c6,12 2,27 -9,34l-13 9c-6,4 -8,11 -5,17 20,40 57,77 97,97 6,3 13,1 17,-5l9 -13c7,-11 22,-15 34,-9l47 24c7,4 11,10 13,17 2,8 0,16 -4,22 -6,8 -12,15 -19,22 -25,22 -58,30 -88,16 -84,-37 -143,-96 -180,-180 -14,-30 -6,-63 16,-88 7,-7 14,-13 22,-19 6,-5 14,-6 21,-4 8,2 14,6 18,13z"></path><path class="fil1" d="M178 23c-7,0 -12,-5 -12,-11 0,-7 5,-12 12,-12 40,0 76,16 102,42 27,27 43,63 43,103 0,6 -5,12 -12,12 -6,0 -12,-6 -12,-12 0,-34 -13,-64 -35,-86 -22,-22 -53,-36 -86,-36z"></path><path class="fil1" d="M177 66c-7,-1 -11,-6 -11,-13 1,-6 7,-11 13,-10 27,3 53,15 72,34 18,18 29,41 29,68 0,6 -5,12 -12,12 -6,0 -11,-6 -11,-12 0,-20 -9,-38 -22,-51 -16,-16 -37,-25 -58,-28z"></path><path class="fil1" d="M178 109c-7,0 -12,-5 -12,-12 0,-6 5,-11 12,-11 16,0 31,6 42,17 11,11 17,26 17,42 0,6 -5,12 -11,12 -7,0 -12,-6 -12,-12 0,-10 -4,-19 -11,-25 -6,-7 -15,-11 -25,-11z"></path></g></svg>
