<svg height='100px' width='100px'  fill="#34cbad" xmlns="http://www.w3.org/2000/svg" viewBox="0 0 24 24" x="0px" y="0px"><title>youtube_stream_video</title><path d="M18.16,4.51a37.7,37.7,0,0,0-12.36,0C3.46,5,2,6.51,2,8.48v7c0,2,1.46,3.49,3.84,4A37.47,37.47,0,0,0,12,20a37.8,37.8,0,0,0,6.18-.51c2.32-.44,3.82-2,3.82-4v-7C22,6.5,20.5,4.94,18.16,4.51Zm-2.9,7.94-5,3a.48.48,0,0,1-.26.07.57.57,0,0,1-.25-.06A.52.52,0,0,1,9.5,15V9a.52.52,0,0,1,.25-.44.54.54,0,0,1,.51,0l5,3a.51.51,0,0,1,0,.86Z"></path></svg>
