<svg width="54" height="54" viewBox="0 0 54 54" fill="currentColor" xmlns="http://www.w3.org/2000/svg">
<path d="M39.24 15.2135L21.6666 32.7868L12.0933 23.2402L8.33331 27.0002L21.6666 40.3335L43 19.0002L39.24 15.2135ZM27 0.333496C12.28 0.333496 0.333313 12.2802 0.333313 27.0002C0.333313 41.7202 12.28 53.6668 27 53.6668C41.72 53.6668 53.6666 41.7202 53.6666 27.0002C53.6666 12.2802 41.72 0.333496 27 0.333496ZM27 48.3335C15.2133 48.3335 5.66665 38.7868 5.66665 27.0002C5.66665 15.2135 15.2133 5.66683 27 5.66683C38.7866 5.66683 48.3333 15.2135 48.3333 27.0002C48.3333 38.7868 38.7866 48.3335 27 48.3335Z" fill="currentColor"/>
</svg>
